<svg width="28" height="28" viewBox="0 0 28 28" fill="none" xmlns="http://www.w3.org/2000/svg">
<path d="M23 14.3333V8.5H25.3333V15.5H23M23 20.1667H25.3333V17.8333H23M11.3333 15.5C14.4483 15.5 20.6667 17.0633 20.6667 20.1667V23.6667H2V20.1667C2 17.0633 8.21833 15.5 11.3333 15.5ZM11.3333 5C12.571 5 13.758 5.49167 14.6332 6.36683C15.5083 7.242 16 8.42899 16 9.66667C16 10.9043 15.5083 12.0913 14.6332 12.9665C13.758 13.8417 12.571 14.3333 11.3333 14.3333C10.0957 14.3333 8.90867 13.8417 8.0335 12.9665C7.15833 12.0913 6.66667 10.9043 6.66667 9.66667C6.66667 8.42899 7.15833 7.242 8.0335 6.36683C8.90867 5.49167 10.0957 5 11.3333 5ZM11.3333 17.7167C7.86833 17.7167 4.21667 19.42 4.21667 20.1667V21.45H18.45V20.1667C18.45 19.42 14.7983 17.7167 11.3333 17.7167ZM11.3333 7.21667C10.6836 7.21667 10.0604 7.47479 9.60092 7.93425C9.14146 8.39372 8.88333 9.01689 8.88333 9.66667C8.88333 10.3164 9.14146 10.9396 9.60092 11.3991C10.0604 11.8585 10.6836 12.1167 11.3333 12.1167C11.9831 12.1167 12.6063 11.8585 13.0657 11.3991C13.5252 10.9396 13.7833 10.3164 13.7833 9.66667C13.7833 9.01689 13.5252 8.39372 13.0657 7.93425C12.6063 7.47479 11.9831 7.21667 11.3333 7.21667Z" fill="black"/>
</svg>
